<svg id="wave" style="transform:rotate(0deg); transition: 0.3s" viewBox="0 0 1440 490" version="1.1" xmlns="http://www.w3.org/2000/svg"><defs><linearGradient id="sw-gradient-0" x1="0" x2="0" y1="1" y2="0"><stop stop-color="hsl(15, 88%, 70%)" offset="0%"></stop><stop stop-color="hsl(41, 100%, 60%)" offset="100%"></stop></linearGradient></defs><path style="transform:translate(0, 0px); opacity:1" fill="url(#sw-gradient-0)" d="M0,245L40,228.7C80,212,160,180,240,147C320,114,400,82,480,57.2C560,33,640,16,720,57.2C800,98,880,196,960,236.8C1040,278,1120,261,1200,245C1280,229,1360,212,1440,204.2C1520,196,1600,196,1680,212.3C1760,229,1840,261,1920,236.8C2000,212,2080,131,2160,155.2C2240,180,2320,310,2400,367.5C2480,425,2560,408,2640,334.8C2720,261,2800,131,2880,122.5C2960,114,3040,229,3120,302.2C3200,376,3280,408,3360,383.8C3440,359,3520,278,3600,253.2C3680,229,3760,261,3840,261.3C3920,261,4000,229,4080,220.5C4160,212,4240,229,4320,253.2C4400,278,4480,310,4560,326.7C4640,343,4720,343,4800,285.8C4880,229,4960,114,5040,57.2C5120,0,5200,0,5280,24.5C5360,49,5440,98,5520,155.2C5600,212,5680,278,5720,310.3L5760,343L5760,490L5720,490C5680,490,5600,490,5520,490C5440,490,5360,490,5280,490C5200,490,5120,490,5040,490C4960,490,4880,490,4800,490C4720,490,4640,490,4560,490C4480,490,4400,490,4320,490C4240,490,4160,490,4080,490C4000,490,3920,490,3840,490C3760,490,3680,490,3600,490C3520,490,3440,490,3360,490C3280,490,3200,490,3120,490C3040,490,2960,490,2880,490C2800,490,2720,490,2640,490C2560,490,2480,490,2400,490C2320,490,2240,490,2160,490C2080,490,2000,490,1920,490C1840,490,1760,490,1680,490C1600,490,1520,490,1440,490C1360,490,1280,490,1200,490C1120,490,1040,490,960,490C880,490,800,490,720,490C640,490,560,490,480,490C400,490,320,490,240,490C160,490,80,490,40,490L0,490Z"></path></svg>